# xmcd
#
# Track frame offsets:
#	150
#	17797
#	34692
#	54250
#	72442
#	100012
#	105740
#	127307
#	134522
#
# Disc length: 2110 seconds
#
# Revision: 13
# Processed by: cddbd v1.5.2PL0 Copyright (c) Steve Scherf et al.
# Submitted via: Jack! The Knife 20 Magnifico
#
DISCID=7d083c09
DTITLE=Manowar - Fighting The World
DYEAR=1987
DGENRE=Heavy Metal
TTITLE0=Fighting The World
TTITLE1=Blow Your Speakers
TTITLE2=Carry On
TTITLE3=Violence And Bloodshed
TTITLE4=Defender
TTITLE5=Drums Of Doom
TTITLE6=Holy War
TTITLE7=Master Of Revenge
TTITLE8=Black Wind, Fire And Steel
EXTD=Manowar
EXTT0=Joey DeMaio
EXTT1=Joey DeMaio
EXTT2=Joey DeMaio
EXTT3=Joey DeMaio
EXTT4=Joey DeMaio
EXTT5=Joey DeMaio
EXTT6=Joey DeMaio
EXTT7=Joey DeMaio
EXTT8=Joey DeMaio
PLAYORDER=
